<svg width="26" height="24" viewBox="0 0 26 24" fill="none" xmlns="http://www.w3.org/2000/svg">
<g clip-path="url(#clip0_48_93)">
<path d="M22.3882 4.39105H21.8873V12.5176C21.8873 15.1584 19.735 17.3107 17.0942 17.3107H9.36967L6.22791 19.3083C6.88966 20.0442 7.8359 20.5205 8.90583 20.5205H17.0015C17.0633 20.5699 17.1375 20.6256 17.2241 20.6813L21.0462 23.1118C21.7141 23.5385 22.2645 23.2355 22.2645 22.4439V20.5205H22.382C24.3735 20.5205 25.9938 18.9063 25.9938 16.9087V8.00285C25.9938 6.01141 24.3797 4.39105 22.382 4.39105H22.3882Z" fill="white"/>
<path d="M17.0942 0H3.6118C1.62036 0 0 1.61418 0 3.6118V12.5176C0 14.5152 1.62036 16.1294 3.6118 16.1294H3.72931V18.0528C3.72931 18.8444 4.27973 19.1475 4.94767 18.7207L8.76974 16.284C8.85633 16.2284 8.93054 16.1727 8.99239 16.1232H17.0942C19.0918 16.1232 20.706 14.509 20.706 12.5114V3.6118C20.706 1.62036 19.0918 0 17.0942 0ZM9.93245 13.8535C9.08516 13.8535 8.50999 13.2288 8.50999 12.4001C8.50999 11.5714 9.09753 10.9467 9.93245 10.9467C10.7674 10.9467 11.3549 11.5528 11.3673 12.4001C11.3673 13.2288 10.7921 13.8535 9.93245 13.8535ZM11.862 7.33492C11.2745 7.99048 11.0333 8.61513 11.0519 9.33254V9.61703H8.93054L8.91817 9.20266C8.8687 8.3863 9.14082 7.55756 9.85823 6.69791C10.3716 6.09182 10.7859 5.5785 10.7859 5.04044C10.7859 4.50238 10.421 4.11275 9.61703 4.08183C9.09134 4.08183 8.45433 4.27355 8.03378 4.55804L7.48953 2.82017C8.0647 2.4862 9.02331 2.1646 10.1551 2.1646C12.2578 2.1646 13.2165 3.32731 13.2165 4.65081C13.2165 5.86299 12.4681 6.6608 11.8559 7.33492H11.862Z" fill="white"/>
</g>
<defs>
<clipPath id="clip0_48_93">
<rect width="26" height="23.3097" fill="white"/>
</clipPath>
</defs>
</svg>
