<svg width="26" height="26" viewBox="0 0 26 26" fill="none" xmlns="http://www.w3.org/2000/svg">
<g clip-path="url(#clip0_53_164)">
<path fill-rule="evenodd" clip-rule="evenodd" d="M3.90076 14.6934C4.73085 21.0708 10.1853 26 16.7831 26C20.3859 26 23.6428 24.5088 25.999 22.1523L21.1485 17.3685C17.2262 22.5619 6.03586 20.9796 3.90076 14.6934Z" fill="white"/>
<path fill-rule="evenodd" clip-rule="evenodd" d="M23.5394 10.6081C24.8598 10.6081 25.9304 11.6794 25.9304 13.0005C25.9304 14.3217 24.8598 15.3929 23.5394 15.3929C22.2191 15.3929 21.1484 14.3217 21.1484 13.0005C21.1484 11.6794 22.2191 10.6081 23.5394 10.6081Z" fill="white"/>
<path fill-rule="evenodd" clip-rule="evenodd" d="M3.06551 6.63954C2.89048 6.63954 2.74821 6.78599 2.74821 6.96522C2.74821 7.14444 2.89048 7.2909 3.06551 7.2909C3.24053 7.2909 3.3828 7.14444 3.3828 6.96522C3.3828 6.78599 3.24053 6.63954 3.06551 6.63954ZM25.9304 3.7791C23.5742 1.42152 20.3521 0 16.784 0C11.8628 0 7.5783 2.74164 5.37359 6.7819C5.37462 6.7819 4.28147 6.4132 3.71546 6.34459C2.53941 6.20223 0.683726 6.60882 0 7.30319C1.04811 7.46603 1.55783 7.54181 2.18935 8.18293C3.32446 9.33509 3.5957 12.1781 4.10235 14.1496C5.17912 18.3394 13.9816 21.1998 17.3265 19.0809C11.3849 18.7644 9.79939 14.1547 11.2845 10.603C12.4074 7.9187 15.7052 6.16741 19.2211 7.4947C19.9232 7.75996 20.5159 8.0969 21.1494 8.66325L25.9304 3.77808V3.7791Z" fill="white"/>
</g>
<defs>
<clipPath id="clip0_53_164">
<rect width="26" height="26" fill="white"/>
</clipPath>
</defs>
</svg>
