<svg width="32" height="28" viewBox="0 0 32 28" fill="none" xmlns="http://www.w3.org/2000/svg">
<g clip-path="url(#clip0_53_172)">
<path d="M25.6479 15.8101L25.0709 16.6823L26.6303 17.7332C26.7187 17.791 26.8175 17.8225 26.9162 17.8225C27.015 17.8225 27.119 17.791 27.2073 17.7332L28.7668 16.6823L28.1898 15.8101L27.4361 16.3145V13.6191C27.4361 13.3301 27.2021 13.0936 26.9162 13.0936H16.5199V10.4665H15.4802V13.0936H5.08388C4.79798 13.0936 4.56406 13.3301 4.56406 13.6191V16.3145L3.81552 15.8101L3.23853 16.6823L4.79798 17.7332C4.88635 17.791 4.98511 17.8225 5.08388 17.8225C5.18264 17.8225 5.28661 17.791 5.37498 17.7332L6.93443 16.6823L6.35743 15.8101L5.6037 16.3145V14.1445H15.4802V16.3145L14.7317 15.8101L14.1547 16.6823L15.7142 17.7332C15.8025 17.791 15.9013 17.8225 16.0001 17.8225C16.0988 17.8225 16.2028 17.791 16.2912 17.7332L17.8506 16.6823L17.2736 15.8101L16.5199 16.3145V14.1445H26.3964V16.3145L25.6479 15.8101Z" fill="white"/>
<path d="M4.65237 28C7.22181 28 9.30474 26.0381 9.30474 23.6179C9.30474 21.1978 7.22181 19.2359 4.65237 19.2359C2.08294 19.2359 0 21.1978 0 23.6179C0 26.0381 2.08294 28 4.65237 28Z" fill="white"/>
<path d="M2.05322 25.4044C2.05322 24.2432 2.9837 23.3027 4.13249 23.3027H4.65231C3.78942 23.3027 3.09286 22.5986 3.09286 21.7264C3.09286 20.8542 3.78942 20.1501 4.65231 20.1501C5.51521 20.1501 6.21177 20.8542 6.21177 21.7264C6.21177 22.5986 5.51521 23.3027 4.65231 23.3027H5.17213C6.32093 23.3027 7.2514 24.2432 7.2514 25.4044V26.4552H2.05322V25.4044Z" fill="#727171"/>
<path d="M16 28C18.5695 28 20.6524 26.0381 20.6524 23.6179C20.6524 21.1978 18.5695 19.2359 16 19.2359C13.4306 19.2359 11.3477 21.1978 11.3477 23.6179C11.3477 26.0381 13.4306 28 16 28Z" fill="white"/>
<path d="M13.4009 25.4044C13.4009 24.2432 14.3314 23.3027 15.4802 23.3027H16C15.1371 23.3027 14.4405 22.5986 14.4405 21.7264C14.4405 20.8542 15.1371 20.1501 16 20.1501C16.8629 20.1501 17.5594 20.8542 17.5594 21.7264C17.5594 22.5986 16.8629 23.3027 16 23.3027H16.5198C17.6686 23.3027 18.5991 24.2432 18.5991 25.4044V26.4552H13.4009V25.4044Z" fill="#727171"/>
<path d="M27.3528 28C29.9222 28 32.0052 26.0381 32.0052 23.6179C32.0052 21.1978 29.9222 19.2359 27.3528 19.2359C24.7834 19.2359 22.7004 21.1978 22.7004 23.6179C22.7004 26.0381 24.7834 28 27.3528 28Z" fill="white"/>
<path d="M24.7537 25.4044C24.7537 24.2432 25.6841 23.3027 26.8329 23.3027H27.3528C26.4899 23.3027 25.7933 22.5986 25.7933 21.7264C25.7933 20.8542 26.4899 20.1501 27.3528 20.1501C28.2157 20.1501 28.9122 20.8542 28.9122 21.7264C28.9122 22.5986 28.2157 23.3027 27.3528 23.3027H27.8726C29.0214 23.3027 29.9518 24.2432 29.9518 25.4044V26.4552H24.7537V25.4044Z" fill="#727171"/>
<path d="M16 8.76412C18.5695 8.76412 20.6524 6.80221 20.6524 4.38206C20.6524 1.96192 18.5695 0 16 0C13.4306 0 11.3477 1.96192 11.3477 4.38206C11.3477 6.80221 13.4306 8.76412 16 8.76412Z" fill="white"/>
<path d="M13.4009 6.16851C13.4009 5.00732 14.3314 4.06681 15.4802 4.06681H16C15.1371 4.06681 14.4405 3.36273 14.4405 2.49053C14.4405 1.61832 15.1371 0.914246 16 0.914246C16.8629 0.914246 17.5594 1.61832 17.5594 2.49053C17.5594 3.36273 16.8629 4.06681 16 4.06681H16.5198C17.6686 4.06681 18.5991 5.00732 18.5991 6.16851V7.21937H13.4009V6.16851Z" fill="#727171"/>
</g>
<defs>
<clipPath id="clip0_53_172">
<rect width="32" height="28" fill="white"/>
</clipPath>
</defs>
</svg>
