<svg width="28" height="28" viewBox="0 0 28 28" fill="none" xmlns="http://www.w3.org/2000/svg">
<path fill-rule="evenodd" clip-rule="evenodd" d="M14.0001 4.66668C12.3676 4.66638 10.7636 5.09425 9.34822 5.90758C7.93281 6.72091 6.75548 7.89125 5.93374 9.30179C5.112 10.7123 4.67458 12.3137 4.66516 13.9461C4.65574 15.5786 5.07464 17.1849 5.88005 18.6048C6.42443 17.8974 7.12422 17.3245 7.92532 16.9307C8.72642 16.5368 9.60736 16.3324 10.5001 16.3333H17.5001C18.3927 16.3324 19.2737 16.5368 20.0748 16.9307C20.8759 17.3245 21.5757 17.8974 22.1201 18.6048C22.9255 17.1849 23.3444 15.5786 23.3349 13.9461C23.3255 12.3137 22.8881 10.7123 22.0664 9.30179C21.2446 7.89125 20.0673 6.72091 18.6519 5.90758C17.2365 5.09425 15.6325 4.66638 14.0001 4.66668ZM23.2669 21.0887C23.4131 20.8981 23.5531 20.7029 23.6869 20.503C24.9803 18.5812 25.6697 16.3166 25.6667 14C25.6667 7.55651 20.4436 2.33334 14.0001 2.33334C7.55655 2.33334 2.33339 7.55651 2.33339 14C2.32971 16.5629 3.17343 19.0551 4.73322 21.0887L4.72739 21.1097L5.14155 21.5915C6.23575 22.8708 7.59433 23.8976 9.12366 24.6011C10.653 25.3046 12.3167 25.6682 14.0001 25.6667C14.2521 25.6667 14.5025 25.6589 14.7514 25.6433C16.8565 25.5106 18.8857 24.8068 20.6209 23.6075C21.4507 23.035 22.2029 22.3574 22.8586 21.5915L23.2727 21.1097L23.2669 21.0887ZM14.0001 7.00001C13.0718 7.00001 12.1816 7.36876 11.5252 8.02514C10.8688 8.68151 10.5001 9.57175 10.5001 10.5C10.5001 11.4283 10.8688 12.3185 11.5252 12.9749C12.1816 13.6313 13.0718 14 14.0001 14C14.9283 14 15.8185 13.6313 16.4749 12.9749C17.1313 12.3185 17.5001 11.4283 17.5001 10.5C17.5001 9.57175 17.1313 8.68151 16.4749 8.02514C15.8185 7.36876 14.9283 7.00001 14.0001 7.00001Z" fill="white"/>
</svg>
