<svg width="26" height="26" viewBox="0 0 26 26" fill="none" xmlns="http://www.w3.org/2000/svg">
<g clip-path="url(#clip0_53_190)">
<path d="M14.03 21.8223L6.67887 25.8142C6.43927 25.9437 6.18968 26.0001 5.93677 26.0001C5.38436 26.0001 4.84859 25.7079 4.56572 25.1898L2.60899 21.8223H14.0333H14.03ZM21.4343 0.807127C21.0183 0.0599057 20.0732 -0.219057 19.3245 0.189424L11.9734 4.18125H23.3977L21.4376 0.807127H21.4343ZM18.7188 13.0018C18.7188 15.0043 17.0849 16.6349 15.0782 16.6349C13.0715 16.6349 11.4376 15.0043 11.4376 13.0018C11.4376 10.9992 13.0715 9.36863 15.0782 9.36863C17.0849 9.36863 18.7188 10.9992 18.7188 13.0018ZM14.5591 11.9623C14.5591 11.6767 14.792 11.4442 15.0782 11.4442C15.3644 11.4442 15.5973 11.6767 15.5973 11.9623C15.5973 12.2479 15.8303 12.4804 16.1165 12.4804C16.4027 12.4804 16.6356 12.2479 16.6356 11.9623C16.6356 11.2882 16.1997 10.7169 15.5973 10.4978V10.4048C15.5973 10.1192 15.3644 9.8867 15.0782 9.8867C14.792 9.8867 14.5591 10.1192 14.5591 10.4048V10.4978C13.9567 10.7103 13.5208 11.2815 13.5208 11.9623C13.5208 12.8191 14.223 13.5199 15.0815 13.5199C15.3677 13.5199 15.6007 13.7523 15.6007 14.0379C15.6007 14.3235 15.3677 14.556 15.0815 14.556C14.7953 14.556 14.5624 14.3235 14.5624 14.0379C14.5624 13.7523 14.3295 13.5199 14.0433 13.5199C13.7571 13.5199 13.5241 13.7523 13.5241 14.0379C13.5241 14.7121 13.9601 15.2833 14.5624 15.5025V15.5955C14.5624 15.8811 14.7953 16.1136 15.0815 16.1136C15.3677 16.1136 15.6007 15.8811 15.6007 15.5955V15.5025C16.203 15.2899 16.6389 14.7187 16.6389 14.0379C16.6389 13.1811 15.9368 12.4804 15.0782 12.4804C14.792 12.4804 14.5591 12.2479 14.5591 11.9623ZM21.8403 13.0018C21.8403 13.8586 22.5424 14.5593 23.401 14.5593H25.4809C25.7671 14.5593 26 14.7918 26 15.0774V19.2286C26 20.0855 25.2978 20.7862 24.4393 20.7862H8.31947V18.7106C8.31947 18.425 8.08652 18.1925 7.80033 18.1925C7.51414 18.1925 7.2812 18.425 7.2812 18.7106V20.7862H1.56073C0.702163 20.7862 0 20.0855 0 19.2286V15.0774C0 14.7918 0.232945 14.5593 0.519135 14.5593H2.599C3.45757 14.5593 4.15973 13.8586 4.15973 13.0018C4.15973 12.145 3.45757 11.4442 2.599 11.4442H0.519135C0.232945 11.4442 0 11.2118 0 10.9262V6.77494C0 5.91812 0.702163 5.2174 1.56073 5.2174H7.2812V6.77494C7.2812 7.06054 7.51414 7.29301 7.80033 7.29301C8.08652 7.29301 8.31947 7.06054 8.31947 6.77494V5.2174H24.4393C25.2978 5.2174 26 5.91812 26 6.77494V10.9262C26 11.2118 25.7671 11.4442 25.4809 11.4442H23.401C22.5424 11.4442 21.8403 12.145 21.8403 13.0018ZM8.31947 16.1136C8.31947 15.8279 8.08652 15.5955 7.80033 15.5955C7.51414 15.5955 7.2812 15.8279 7.2812 16.1136V17.1497C7.2812 17.4353 7.51414 17.6678 7.80033 17.6678C8.08652 17.6678 8.31947 17.4353 8.31947 17.1497V16.1136ZM8.31947 13.5199C8.31947 13.2343 8.08652 13.0018 7.80033 13.0018C7.51414 13.0018 7.2812 13.2343 7.2812 13.5199V14.556C7.2812 14.8416 7.51414 15.0741 7.80033 15.0741C8.08652 15.0741 8.31947 14.8416 8.31947 14.556V13.5199ZM8.31947 10.9262C8.31947 10.6406 8.08652 10.4081 7.80033 10.4081C7.51414 10.4081 7.2812 10.6406 7.2812 10.9262V11.9623C7.2812 12.2479 7.51414 12.4804 7.80033 12.4804C8.08652 12.4804 8.31947 12.2479 8.31947 11.9623V10.9262ZM8.31947 8.32916C8.31947 8.04356 8.08652 7.81109 7.80033 7.81109C7.51414 7.81109 7.2812 8.04356 7.2812 8.32916V9.36531C7.2812 9.65091 7.51414 9.88338 7.80033 9.88338C8.08652 9.88338 8.31947 9.65091 8.31947 9.36531V8.32916ZM19.7604 13.0018C19.7604 10.428 17.6606 8.33248 15.0815 8.33248C12.5025 8.33248 10.4027 10.428 10.4027 13.0018C10.4027 15.5756 12.5025 17.6711 15.0815 17.6711C17.6606 17.6711 19.7604 15.5756 19.7604 13.0018Z" fill="#FFFEFE"/>
</g>
<defs>
<clipPath id="clip0_53_190">
<rect width="26" height="26" fill="white"/>
</clipPath>
</defs>
</svg>
