<svg width="26" height="26" viewBox="0 0 26 26" fill="none" xmlns="http://www.w3.org/2000/svg">
<g clip-path="url(#clip0_48_66)">
<path fill-rule="evenodd" clip-rule="evenodd" d="M9.3236 14.7342L13.0026 17.2497L16.549 14.8031L24.4985 22.646C24.2888 22.7145 24.0669 22.7491 23.8329 22.75H2.1671C1.8811 22.75 1.6081 22.6941 1.3572 22.594L9.3236 14.7342ZM26 8.2888V20.5829C26 20.904 25.9298 21.2082 25.805 21.4825L18.0128 13.7943L26 8.2888ZM0 8.3577L7.8546 13.7293L0.1378 21.3447C0.0474016 21.1009 0.000752689 20.843 0 20.5829L0 8.3577ZM23.8329 3.25C25.0289 3.25 26 4.2198 26 5.4171V6.1789L12.9974 15.1424L0 6.253V5.4171C0 4.2211 0.9698 3.25 2.1671 3.25H23.8329Z" fill="#FFFEFE"/>
</g>
<defs>
<clipPath id="clip0_48_66">
<rect width="26" height="26" fill="white"/>
</clipPath>
</defs>
</svg>
