<svg width="26" height="23" viewBox="0 0 26 23" fill="none" xmlns="http://www.w3.org/2000/svg">
<path fill-rule="evenodd" clip-rule="evenodd" d="M9.32456 0C10.5166 0 11.4826 0.97403 11.4826 2.17603C11.4826 3.37802 10.5166 4.34909 9.32456 4.34909C8.13247 4.34909 7.1694 3.37506 7.1694 2.17603C7.1694 0.97403 8.13541 0 9.32456 0ZM3.46983 13.3374L5.46349 20.8395C6.34728 20.3007 7.26923 20.1142 8.39672 20.3747L12.4163 21.3043C13.3324 21.5145 14.1927 21.4346 15.0061 20.9609L25.0595 15.1078C25.958 14.5868 26.2663 13.4173 25.7495 12.5144C25.2327 11.6084 24.073 11.2976 23.1774 11.8186L17.0907 15.3624C17.0937 15.5934 17.0672 15.8302 17.0026 16.0641C16.6415 17.4052 15.2586 18.2016 13.9285 17.8375L10.179 16.8072C9.95583 16.745 9.82077 16.5111 9.88243 16.2861C9.94409 16.0611 10.1731 15.925 10.3992 15.9871L14.1487 17.0174C15.0295 17.2602 15.9486 16.7243 16.1893 15.8421C16.4888 14.7289 15.8311 13.5654 14.7271 13.2634L7.70672 11.3361C6.77596 11.2117 5.93034 11.4397 5.18455 12.017L3.46983 13.3404V13.3374ZM2.48621 12.9111L4.90855 22.0237C4.96727 22.2458 4.83515 22.4767 4.61493 22.5359L2.94425 22.9859C2.72404 23.0451 2.49502 22.9119 2.43629 22.6899L0.0139512 13.5802C-0.0447723 13.3581 0.0873554 13.1272 0.307568 13.068L1.97825 12.618C2.19846 12.5588 2.42749 12.692 2.48621 12.914V12.9111ZM19.5043 9.95939C19.3281 7.90771 17.6075 6.28235 15.5287 6.28235C13.4499 6.28235 11.7293 7.90771 11.5531 9.95939C11.5384 10.1459 11.6823 10.3058 11.8673 10.3058H19.1901C19.378 10.3058 19.5219 10.1459 19.5043 9.95939ZM15.5287 1.40331C16.7208 1.40331 17.6838 2.37734 17.6838 3.57934C17.6838 4.78133 16.7178 5.7524 15.5258 5.7524C14.3337 5.7524 13.3677 4.77837 13.3677 3.57934C13.3677 2.37734 14.3337 1.40331 15.5258 1.40331H15.5287ZM25.7084 8.55903C25.7231 8.74555 25.5792 8.90542 25.3942 8.90542H20.1561C19.8684 7.94323 19.2958 7.11131 18.5383 6.50143C19.2664 5.52148 20.4292 4.88199 21.7328 4.88199C23.8116 4.88199 25.5322 6.50735 25.7084 8.55903ZM12.5191 6.49847C11.7616 7.10835 11.189 7.94027 10.9013 8.90246H5.66608C5.4811 8.90246 5.3343 8.74259 5.35191 8.55607C5.52808 6.50439 7.24868 4.87903 9.32749 4.87903C10.6312 4.87903 11.7909 5.51556 12.522 6.49847H12.5191ZM21.7328 0C22.9249 0 23.8909 0.97403 23.8909 2.17603C23.8909 3.37802 22.9249 4.34909 21.7328 4.34909C20.5407 4.34909 19.5747 3.37506 19.5747 2.17603C19.5747 0.976991 20.5407 0 21.7328 0Z" fill="white"/>
</svg>
