<svg width="22" height="22" viewBox="0 0 22 22" fill="none" xmlns="http://www.w3.org/2000/svg">
<path d="M21.1941 10.545L11.4441 0.795005C11.0541 0.405005 10.5125 0.166672 9.91663 0.166672H2.33329C1.14163 0.166672 0.166626 1.14167 0.166626 2.33334V9.91667C0.166626 10.5125 0.404959 11.0542 0.805793 11.455L10.5558 21.205C10.9458 21.595 11.4875 21.8333 12.0833 21.8333C12.6791 21.8333 13.2208 21.595 13.6108 21.1942L21.1941 13.6108C21.595 13.2208 21.8333 12.6792 21.8333 12.0833C21.8333 11.4875 21.5841 10.935 21.1941 10.545ZM3.95829 5.58334C3.05913 5.58334 2.33329 4.8575 2.33329 3.95834C2.33329 3.05917 3.05913 2.33334 3.95829 2.33334C4.85746 2.33334 5.58329 3.05917 5.58329 3.95834C5.58329 4.8575 4.85746 5.58334 3.95829 5.58334Z" fill="white"/>
</svg>
