<svg width="218" height="55" viewBox="0 0 218 55" fill="none" xmlns="http://www.w3.org/2000/svg">
<path id="Combined Shape" fill-rule="evenodd" clip-rule="evenodd" d="M45.7099 23.7808C45.8898 23.9767 46.0637 24.1661 46.2263 24.3484C47.7896 25.7219 48.7778 27.7341 48.7778 29.9783C48.7778 34.1173 45.421 37.4727 41.28 37.4727C37.1393 37.4727 33.7824 34.1173 33.7824 29.9783C33.7824 27.7389 34.7661 25.7304 36.3236 24.3572L36.3181 24.3527C36.4923 24.1578 36.6798 23.9548 36.8743 23.7443L36.8748 23.7437L36.875 23.7436C38.1688 22.3432 39.7688 20.6116 39.7688 18.7364C39.7688 16.8614 38.1692 15.13 36.8755 13.7295C36.6806 13.5185 36.4926 13.3151 36.3181 13.1198C36.32 13.1186 36.3218 13.1171 36.3236 13.1156C34.7661 11.7423 33.7824 9.7338 33.7824 7.49443C33.7824 3.35543 37.1393 0 41.28 0C45.421 0 48.7778 3.35543 48.7778 7.49443C48.7778 9.73864 47.7896 11.7508 46.2263 13.1243C46.0638 13.3065 45.8901 13.4957 45.7104 13.6915L45.7099 13.692C44.4184 15.0989 42.816 16.8446 42.816 18.7364C42.816 20.6282 44.4184 22.3738 45.7099 23.7808ZM14.995 29.978C14.995 25.839 11.6382 22.4836 7.49751 22.4836C3.35681 22.4836 0 25.839 0 29.978C0 34.1173 3.35681 37.4728 7.49751 37.4728C11.6382 37.4728 14.995 34.1173 14.995 29.978ZM0 7.49456C0 11.6336 3.35681 14.989 7.4975 14.989C11.6385 14.989 14.9953 11.6336 14.9953 7.49456C14.9953 3.35557 11.6385 0.000136416 7.4975 0.000136416C3.35681 0.000136416 0 3.35557 0 7.49456ZM24.3887 54.7732C20.248 54.7732 16.8912 51.4177 16.8912 47.2787C16.8912 43.1398 20.248 39.7843 24.3887 39.7843C28.5297 39.7843 31.8865 43.1398 31.8865 47.2787C31.8865 51.4177 28.5297 54.7732 24.3887 54.7732Z" fill="black"/>
<path id="Combined Shape_2" fill-rule="evenodd" clip-rule="evenodd" d="M122.773 24.2708C122.773 22.4837 124.201 21.0352 125.962 21.0352C127.723 21.0352 129.151 22.4837 129.151 24.2708C129.151 26.0579 127.723 27.5067 125.962 27.5067C124.201 27.5067 122.773 26.0579 122.773 24.2708ZM121.392 30.1281H119.221C116.285 30.1281 114.769 32.0153 113.926 33.1186C113.605 33.5398 113.138 33.5056 113.138 32.8938V30.4034C113.138 30.2512 113.017 30.1281 112.867 30.1281H108.757C108.607 30.1281 108.486 30.2512 108.486 30.4034V54.5452C108.486 54.697 108.607 54.8205 108.757 54.8205H113.146C113.296 54.8205 113.417 54.697 113.417 54.5452V40.1771C113.417 36.4538 115.622 34.6525 119.224 34.6525L121.392 34.6519C121.542 34.6519 121.663 34.5288 121.663 34.3769V30.4034C121.663 30.2512 121.542 30.1281 121.392 30.1281ZM128.146 30.1281H123.778C123.629 30.1281 123.507 30.2512 123.507 30.4034V54.5452C123.507 54.697 123.629 54.8205 123.778 54.8205H128.146C128.295 54.8205 128.417 54.697 128.417 54.5452V30.4034C128.417 30.2512 128.295 30.1281 128.146 30.1281ZM144.583 34.0152V30.4026C144.583 30.2507 144.462 30.1276 144.312 30.1276L139.416 30.1267V27.6513C139.416 26.9864 139.58 26.4836 139.918 26.1142C140.25 25.7505 140.704 25.5738 141.306 25.5738H144.345L144.346 25.5738L144.349 25.5735C144.35 25.5734 144.351 25.5732 144.352 25.5732H144.593C144.742 25.5732 144.864 25.4501 144.864 25.2982V25.0704V21.5531V21.3247C144.864 21.1725 144.742 21.0494 144.593 21.0494H144.345H143.594H140.968C136.666 21.0494 134.484 23.0017 134.484 26.852V30.1276H130.489C130.339 30.1276 130.218 30.2507 130.218 30.4026V34.0152C130.218 34.1671 130.339 34.2905 130.489 34.2905L134.484 34.2959V53.2725V54.3163V54.5447C134.484 54.6966 134.606 54.8197 134.755 54.8197H135.003H138.92H139.144C139.294 54.8197 139.416 54.6966 139.416 54.5447V54.3244L139.416 54.3211L139.416 54.3181L139.416 54.3163V34.2953L144.312 34.2905C144.462 34.2905 144.583 34.1671 144.583 34.0152ZM94.5207 34.3776C90.0153 34.3776 88.2417 38.4013 88.2417 40.2444L100.686 40.2453C100.686 38.4013 99.455 34.3776 94.5207 34.3776ZM83.0387 42.4387C83.0387 37.926 85.091 29.8528 94.5201 29.8528C103.917 29.8528 105.69 37.7681 105.955 40.7907C106.057 41.9519 105.936 44.0306 105.936 44.0306C105.927 44.1761 105.808 44.2902 105.665 44.2902L88.2408 44.2899C88.2408 49.3313 92.5849 50.4773 94.5201 50.4773C98.809 50.4773 99.9971 47.6392 100.187 47.1854L100.187 47.1849L100.199 47.1567L100.205 47.1425C100.249 47.0442 100.345 46.9828 100.451 46.9828H105.198C105.325 46.9828 105.413 47.0596 105.384 47.229C105.212 48.0794 103.414 55.0018 94.5201 55.0018C88.1068 55.0018 83.0387 50.7375 83.0387 42.4387ZM199.585 40.2444C199.585 38.4013 201.358 34.3776 205.863 34.3776C210.798 34.3776 212.029 38.4013 212.029 40.2453L199.585 40.2444ZM217.298 40.7907C217.032 37.7681 215.26 29.8528 205.863 29.8528C196.434 29.8528 194.381 37.926 194.381 42.4387C194.381 50.7375 199.45 55.0018 205.863 55.0018C214.757 55.0018 216.554 48.0794 216.726 47.229C216.756 47.0596 216.668 46.9828 216.541 46.9828H211.794C211.688 46.9828 211.592 47.0442 211.548 47.1425C211.544 47.1527 211.537 47.1671 211.53 47.1854C211.34 47.6392 210.152 50.4773 205.863 50.4773C203.928 50.4773 199.584 49.3313 199.584 44.2899L217.007 44.2902C217.151 44.2902 217.27 44.1761 217.278 44.0306C217.278 44.0306 217.4 41.9519 217.298 40.7907ZM163.017 42.9375L163.018 42.9121C163.019 42.8989 163.019 42.8857 163.02 42.8724C163.024 42.7293 163.027 42.585 163.027 42.4385C163.027 42.2951 163.024 42.1535 163.02 42.0132C163.018 41.9475 163.014 41.8827 163.011 41.8177L163.009 41.7835L163.006 41.7215L163.006 41.7212L163.006 41.7209C163.004 41.6801 163.003 41.6392 163 41.599C162.995 41.5244 162.989 41.4507 162.983 41.377L162.979 41.3388L162.975 41.288L162.975 41.2874C162.973 41.2541 162.97 41.2208 162.967 41.1878C162.959 41.1106 162.95 41.0345 162.941 40.9581L162.94 40.9531C162.933 40.8923 162.926 40.8315 162.918 40.7716C162.917 40.7642 162.916 40.7568 162.915 40.7494C162.914 40.7393 162.912 40.7293 162.911 40.7193C162.908 40.6981 162.904 40.677 162.901 40.6559C162.898 40.6376 162.896 40.6194 162.893 40.6012C162.88 40.5138 162.866 40.4261 162.851 40.3401C162.85 40.3336 162.849 40.3272 162.848 40.3207L162.845 40.3067L162.842 40.2876L162.839 40.2733C162.573 38.8284 162.025 37.5928 161.199 36.5848C160.3 35.489 159.143 34.7977 157.745 34.5184C157.739 34.5171 157.732 34.5159 157.725 34.5147L157.716 34.513L157.704 34.5109C157.606 34.4918 157.506 34.4749 157.406 34.4597C157.379 34.456 157.352 34.4526 157.325 34.4492L157.325 34.4492L157.275 34.4428C157.197 34.4328 157.12 34.4228 157.041 34.4153C156.984 34.4097 156.925 34.4056 156.866 34.4016L156.824 34.3986L156.773 34.3949C156.734 34.3919 156.696 34.389 156.656 34.3871C156.523 34.3808 156.389 34.3772 156.252 34.3772C156.117 34.3772 155.984 34.3808 155.854 34.3868C155.78 34.3904 155.707 34.3962 155.635 34.4019L155.611 34.4038C155.592 34.4054 155.573 34.4067 155.554 34.4081C155.538 34.4093 155.521 34.4104 155.505 34.4118C155.497 34.4124 155.489 34.413 155.482 34.4138C153.77 34.5795 152.371 35.3114 151.317 36.5963C150.331 37.7976 149.738 39.3115 149.546 41.1083L149.544 41.1295L149.542 41.1512C149.531 41.2562 149.522 41.363 149.514 41.4698L149.513 41.4852L149.51 41.5263C149.509 41.5377 149.508 41.549 149.507 41.5603C149.506 41.5681 149.506 41.5758 149.505 41.5836C149.499 41.6813 149.495 41.7805 149.49 41.8797C149.49 41.8984 149.489 41.917 149.488 41.9355C149.486 41.9599 149.485 41.9843 149.484 42.0089C149.48 42.1508 149.477 42.2936 149.477 42.4385C149.477 42.5862 149.48 42.732 149.485 42.8763C149.485 42.8836 149.485 42.8907 149.486 42.8977L149.486 42.9003L149.486 42.9083L149.486 42.919C149.565 45.0915 150.179 46.8897 151.316 48.269C152.373 49.5509 153.776 50.2797 155.495 50.4421C155.498 50.4425 155.5 50.4427 155.503 50.4428L155.507 50.443C155.622 50.4539 155.739 50.4621 155.857 50.4675C155.987 50.4736 156.118 50.4772 156.252 50.4772C156.388 50.4772 156.521 50.4736 156.652 50.4675C156.726 50.464 156.799 50.4583 156.872 50.4526L156.897 50.4506L156.946 50.4471L156.946 50.4471C156.973 50.4452 157 50.4434 157.027 50.4409C158.75 50.2769 160.151 49.5524 161.199 48.2805C162.249 47.0056 162.85 45.3604 162.993 43.3815L162.995 43.351L162.995 43.3508C162.996 43.3357 162.998 43.3207 162.998 43.3056C163.005 43.2003 163.01 43.0932 163.014 42.9858C163.015 42.9704 163.016 42.9551 163.017 42.9397L163.017 42.9375ZM167.946 41.7911C167.953 42.0041 167.958 42.2192 167.958 42.4385C167.958 42.6579 167.953 42.873 167.946 43.086C167.945 43.1114 167.945 43.1368 167.944 43.1622C167.798 47.1466 166.447 50.0113 164.46 51.9236C162.524 53.8508 159.958 54.88 156.819 54.9902C156.63 54.9977 156.441 55.0016 156.251 55.0016C156.063 55.0016 155.874 54.9977 155.686 54.9902C152.316 54.8746 149.616 53.7177 147.655 51.5434C147.593 51.4751 147.534 51.4049 147.475 51.3346L147.427 51.278C147.412 51.2605 147.397 51.2429 147.382 51.2254L147.371 51.2121L147.334 51.1682C147.31 51.1405 147.287 51.1129 147.264 51.0847C145.81 49.3297 144.821 46.9403 144.595 43.829L144.594 43.8088L144.593 43.8002C144.578 43.5921 144.566 43.3809 144.559 43.1664L144.556 43.0799C144.549 42.869 144.545 42.6557 144.545 42.4385C144.545 42.2234 144.549 42.0123 144.556 41.8032L144.556 41.8006C144.557 41.7663 144.558 41.7315 144.559 41.6973C144.566 41.4961 144.577 41.2983 144.591 41.1028C144.593 41.0662 144.596 41.0296 144.599 40.993C144.614 40.7933 144.632 40.5958 144.653 40.4022C144.655 40.3834 144.658 40.3646 144.66 40.3459C144.682 40.1489 144.708 39.955 144.737 39.7641C144.739 39.7505 144.74 39.7369 144.742 39.7236C144.772 39.5278 144.806 39.3357 144.842 39.146L144.857 39.0698C144.894 38.8825 144.934 38.698 144.978 38.5167L144.994 38.4478C145.04 38.262 145.088 38.079 145.139 37.8996L145.143 37.8879C145.146 37.8788 145.149 37.8696 145.151 37.8602C145.26 37.4872 145.382 37.1284 145.517 36.7835C145.521 36.7732 145.525 36.7629 145.529 36.7525C145.533 36.7421 145.537 36.7318 145.541 36.7215C145.602 36.569 145.665 36.4199 145.731 36.2728C145.75 36.229 145.77 36.1845 145.79 36.1409C145.847 36.0175 145.906 35.8965 145.966 35.7773C146.003 35.7035 146.041 35.6302 146.079 35.5576L146.084 35.549L146.091 35.5358L146.098 35.5225C146.529 34.7145 147.047 33.9714 147.655 33.2992C149.617 31.1315 152.319 29.9786 155.69 29.8639C155.877 29.8563 156.064 29.8524 156.251 29.8524C156.44 29.8524 156.629 29.8566 156.818 29.8642C159.967 29.9746 162.538 31.0135 164.477 32.9582C166.455 34.8757 167.798 37.741 167.944 41.7149L167.945 41.7547L167.946 41.7911ZM182.332 29.8554C179.268 29.8524 176.859 31.9641 175.991 33.1715C175.693 33.5854 175.129 33.5252 175.129 32.8348V30.4027C175.129 30.2506 175.008 30.1274 174.858 30.1274H170.748C170.598 30.1274 170.477 30.2506 170.477 30.4027V54.5445C170.477 54.6967 170.598 54.8198 170.748 54.8198H175.138C175.287 54.8198 175.409 54.6967 175.409 54.5445V40.2055C175.409 37.4237 177.075 34.3769 181.215 34.3769C185.97 34.3769 187.067 38.0769 187.067 40.0337V54.5445C187.067 54.6967 187.188 54.8198 187.338 54.8198H191.728C191.877 54.8198 191.999 54.6967 191.999 54.5445V40.646C191.999 34.7115 188.819 29.8621 182.332 29.8554ZM78.275 30.1281H83.284C83.4081 30.1281 83.4956 30.2512 83.4568 30.3704L75.8255 54.6329C75.7883 54.7448 75.6848 54.8205 75.5683 54.8205H67.6386C67.5223 54.8205 67.4191 54.7451 67.3816 54.6338L59.7461 30.3704C59.7073 30.2512 59.7948 30.1281 59.9189 30.1281H64.9137C65.0187 30.1281 65.1114 30.1979 65.1413 30.3002L71.1446 50.0201C71.295 50.4733 71.927 50.4727 72.0768 50.0195L78.0474 30.3005C78.0773 30.1982 78.1699 30.1281 78.275 30.1281Z" fill="black"/>
</svg>
